<svg width="104" height="104" viewBox="0 0 104 104" fill="none" xmlns="http://www.w3.org/2000/svg">
<path d="M65.5259 19.6975L27.8089 32.7148C17.9986 36.1007 13.0934 37.7936 11.266 40.6755C9.67664 43.1818 9.3154 46.2756 10.2845 49.0807C11.3989 52.3061 15.7821 55.0835 24.5484 60.6385L58.2601 82.0003C65.2192 86.41 68.6987 88.6149 71.7437 88.4897C74.4032 88.3804 76.9024 87.1885 78.6613 85.1907C80.6751 82.9033 81.1518 78.8116 82.1052 70.6283L86.1105 36.2491C87.0634 28.0699 87.5399 23.9802 86.1067 21.2917C84.8549 18.9434 82.6977 17.2088 80.1354 16.4903C77.2019 15.6677 73.3099 17.0109 65.5259 19.6975Z" fill="white" fill-opacity="0.54"/>
<path d="M77.675 25.3405L35.4523 19.1527C25.942 17.7589 21.1869 17.062 18.3047 18.6607C15.7946 20.053 14.0255 22.4807 13.469 25.2967C12.8301 28.53 14.9501 32.8431 19.1901 41.4693L40.3014 84.4199C44.4987 92.9591 46.5973 97.2288 49.5292 98.6993C52.0832 99.9803 55.0705 100.077 57.7017 98.9627C60.7222 97.684 63.0913 93.5583 67.8297 85.307L88.941 48.5442L88.9411 48.5441C92.768 41.88 94.6814 38.548 94.4978 35.6231C94.3373 33.0652 93.176 30.6733 91.2652 28.9651C89.0804 27.0119 85.2786 26.4548 77.675 25.3405Z" fill="white"/>
<path d="M45.3743 58.7114L34.1781 52.5535C33.2801 52.0596 33.2801 50.7693 34.1781 50.2753L45.3742 44.1175C46.42 43.5423 47.6232 44.5623 47.227 45.6881L45.3638 50.9829C45.2655 51.2622 45.2655 51.5667 45.3638 51.846L47.227 57.1408C47.6232 58.2666 46.42 59.2866 45.3743 58.7114Z" stroke="#101827" stroke-width="1.625"/>
<path d="M61.1145 43.9807L73.6564 50.2517C74.6146 50.7308 74.6146 52.0981 73.6564 52.5772L61.1145 58.8481C60.0517 59.3795 58.8919 58.3242 59.3208 57.2161L61.3849 51.8837C61.5018 51.5818 61.5018 51.2471 61.3849 50.9451L59.3208 45.6128C58.8919 44.5047 60.0517 43.4493 61.1145 43.9807Z" stroke="#101827" stroke-width="1.625"/>
<path d="M51.6069 60.3519L56.4819 42.4769" stroke="#101827" stroke-width="1.625" stroke-linecap="round"/>
</svg>
