<svg width="319" height="96" viewBox="0 0 319 96" fill="none" xmlns="http://www.w3.org/2000/svg">
<path d="M46.3164 75H36.3066V14.9902H0.90625V4.98047H81.7168V14.9902H46.3164V75ZM150.662 47.5098C150.662 51.2858 149.946 54.834 148.514 58.1543C147.081 61.4746 145.128 64.388 142.654 66.8945C140.213 69.3685 137.332 71.3379 134.012 72.8027C130.691 74.235 127.143 74.9674 123.367 75H107.986C104.21 74.9674 100.662 74.235 97.3418 72.8027C94.0215 71.3379 91.1243 69.3685 88.6504 66.8945C86.209 64.388 84.2721 61.4746 82.8398 58.1543C81.4076 54.834 80.6914 51.2858 80.6914 47.5098C80.6914 43.7337 81.4076 40.1855 82.8398 36.8652C84.2721 33.5124 86.209 30.599 88.6504 28.125C91.1243 25.6185 94.0215 23.6491 97.3418 22.2168C100.662 20.752 104.21 20.0195 107.986 20.0195H123.367C125.874 20.0195 128.299 20.3451 130.643 20.9961C132.986 21.6471 135.167 22.5749 137.186 23.7793C139.204 24.9837 141.043 26.4323 142.703 28.125C144.363 29.7852 145.779 31.6406 146.951 33.6914C148.123 35.7096 149.035 37.8906 149.686 40.2344C150.337 42.5781 150.662 45.0033 150.662 47.5098ZM140.701 47.5098C140.701 45.1009 140.245 42.8385 139.334 40.7227C138.423 38.6068 137.186 36.7676 135.623 35.2051C134.061 33.61 132.221 32.3568 130.105 31.4453C128.022 30.5013 125.776 30.013 123.367 29.9805H107.986C105.577 30.013 103.315 30.5013 101.199 31.4453C99.1159 32.3568 97.293 33.61 95.7305 35.2051C94.168 36.7676 92.931 38.6068 92.0195 40.7227C91.1406 42.8385 90.7012 45.1009 90.7012 47.5098C90.7012 49.9186 91.1406 52.181 92.0195 54.2969C92.931 56.4128 94.168 58.2682 95.7305 59.8633C97.293 61.4258 99.1159 62.679 101.199 63.623C103.315 64.5345 105.577 64.9902 107.986 64.9902H123.367C125.776 64.9902 128.022 64.5345 130.105 63.623C132.221 62.679 134.061 61.4258 135.623 59.8633C137.186 58.2682 138.423 56.4128 139.334 54.2969C140.245 52.181 140.701 49.9186 140.701 47.5098ZM226.443 47.5098C226.443 51.2858 225.727 54.8503 224.295 58.2031C222.863 61.5234 220.91 64.4368 218.436 66.9434C215.962 69.4173 213.064 71.3867 209.744 72.8516C206.424 74.2839 202.876 75 199.1 75H176.639V64.9902H199.1C201.508 64.9577 203.755 64.4857 205.838 63.5742C207.954 62.6302 209.793 61.377 211.355 59.8145C212.918 58.2194 214.155 56.3802 215.066 54.2969C215.978 52.181 216.434 49.9186 216.434 47.5098C216.434 45.1009 215.978 42.8385 215.066 40.7227C214.155 38.5742 212.918 36.7188 211.355 35.1562C209.793 33.5612 207.954 32.3079 205.838 31.3965C203.755 30.4525 201.508 29.9805 199.1 29.9805H171.609V95.0195H161.6V20.0195H199.1C202.876 20.0521 206.424 20.8008 209.744 22.2656C213.064 23.6979 215.962 25.6673 218.436 28.1738C220.91 30.6478 222.863 33.5449 224.295 36.8652C225.727 40.1855 226.443 43.7337 226.443 47.5098ZM249.783 7.51953C249.783 8.5612 249.588 9.53776 249.197 10.4492C248.807 11.3281 248.27 12.1094 247.586 12.793C246.902 13.4766 246.105 14.0137 245.193 14.4043C244.282 14.7949 243.322 14.9902 242.312 14.9902C241.271 14.9902 240.294 14.7949 239.383 14.4043C238.471 14.0137 237.674 13.4766 236.99 12.793C236.307 12.1094 235.77 11.3281 235.379 10.4492C234.988 9.53776 234.793 8.5612 234.793 7.51953C234.793 6.51042 234.988 5.55013 235.379 4.63867C235.77 3.72721 236.307 2.92969 236.99 2.24609C237.674 1.5625 238.471 1.02539 239.383 0.634766C240.294 0.211589 241.271 0 242.312 0C243.322 0 244.282 0.211589 245.193 0.634766C246.105 1.02539 246.902 1.5625 247.586 2.24609C248.27 2.92969 248.807 3.72721 249.197 4.63867C249.588 5.55013 249.783 6.51042 249.783 7.51953ZM247.293 75H237.283V20.0195H247.293V75ZM318.24 75H285.525C281.749 74.9674 278.201 74.235 274.881 72.8027C271.561 71.3379 268.663 69.3685 266.189 66.8945C263.748 64.388 261.811 61.4746 260.379 58.1543C258.947 54.834 258.23 51.2858 258.23 47.5098C258.23 43.7337 258.947 40.1855 260.379 36.8652C261.811 33.5124 263.748 30.599 266.189 28.125C268.663 25.6185 271.561 23.6491 274.881 22.2168C278.201 20.752 281.749 20.0195 285.525 20.0195H318.24V29.9805H285.525C283.117 30.013 280.854 30.5013 278.738 31.4453C276.655 32.3568 274.832 33.61 273.27 35.2051C271.707 36.7676 270.47 38.6068 269.559 40.7227C268.68 42.8385 268.24 45.1009 268.24 47.5098C268.24 49.9186 268.68 52.181 269.559 54.2969C270.47 56.4128 271.707 58.2682 273.27 59.8633C274.832 61.4258 276.655 62.679 278.738 63.623C280.854 64.5345 283.117 64.9902 285.525 64.9902H318.24V75Z" fill="white"/>
</svg>
