<svg width="288" height="96" viewBox="0 0 288 96" fill="none" xmlns="http://www.w3.org/2000/svg">
<path d="M83.2812 39.9902C83.2812 44.8405 82.5 49.3978 80.9375 53.6621C79.4076 57.9264 77.2266 61.6374 74.3945 64.7949C71.5625 67.9525 68.1608 70.4427 64.1895 72.2656C60.2507 74.0885 55.8724 75 51.0547 75H15.752V64.9902H51.0547C54.5052 64.9902 57.5977 64.3392 60.332 63.0371C63.099 61.735 65.4264 59.9609 67.3145 57.7148C69.235 55.4362 70.6999 52.7832 71.709 49.7559C72.7507 46.696 73.2715 43.4408 73.2715 39.9902C73.2715 36.5397 72.7507 33.3008 71.709 30.2734C70.6999 27.2461 69.235 24.6094 67.3145 22.3633C65.4264 20.0846 63.099 18.2943 60.332 16.9922C57.5977 15.6576 54.5052 14.9902 51.0547 14.9902H10.7715V75H0.761719V4.98047H51.0547C55.8724 4.98047 60.2507 5.9082 64.1895 7.76367C68.1608 9.58659 71.5625 12.0931 74.3945 15.2832C77.2266 18.4408 79.4076 22.1517 80.9375 26.416C82.5 30.6478 83.2812 35.1725 83.2812 39.9902ZM157.5 75H107.5C105.059 75 102.78 74.5443 100.664 73.6328C98.5482 72.7214 96.6927 71.4844 95.0977 69.9219C93.5026 68.3268 92.2493 66.4714 91.3379 64.3555C90.4264 62.207 89.9707 59.9284 89.9707 57.5195C89.9707 55.0781 90.4264 52.7995 91.3379 50.6836C92.2493 48.5677 93.5026 46.7122 95.0977 45.1172C96.6927 43.5221 98.5482 42.2689 100.664 41.3574C102.78 40.446 105.059 39.9902 107.5 39.9902H142.461V50H107.5C106.458 50 105.482 50.2116 104.57 50.6348C103.659 51.0254 102.861 51.5625 102.178 52.2461C101.494 52.9297 100.957 53.7272 100.566 54.6387C100.176 55.5501 99.9805 56.5104 99.9805 57.5195C99.9805 58.5612 100.176 59.5378 100.566 60.4492C100.957 61.3281 101.494 62.1094 102.178 62.793C102.861 63.4766 103.659 64.0137 104.57 64.4043C105.482 64.7949 106.458 64.9902 107.5 64.9902H147.49V37.5C147.49 36.4909 147.279 35.5306 146.855 34.6191C146.465 33.7077 145.928 32.9102 145.244 32.2266C144.561 31.543 143.763 31.0059 142.852 30.6152C141.94 30.1921 140.98 29.9805 139.971 29.9805H99.9805V20.0195H139.971C142.412 20.0195 144.691 20.4753 146.807 21.3867C148.923 22.2982 150.778 23.5514 152.373 25.1465C153.968 26.709 155.221 28.5482 156.133 30.6641C157.044 32.7799 157.5 35.0586 157.5 37.5V75ZM184.014 7.51953C184.014 8.5612 183.818 9.53776 183.428 10.4492C183.037 11.3281 182.5 12.1094 181.816 12.793C181.133 13.4766 180.335 14.0137 179.424 14.4043C178.512 14.7949 177.552 14.9902 176.543 14.9902C175.501 14.9902 174.525 14.7949 173.613 14.4043C172.702 14.0137 171.904 13.4766 171.221 12.793C170.537 12.1094 170 11.3281 169.609 10.4492C169.219 9.53776 169.023 8.5612 169.023 7.51953C169.023 6.51042 169.219 5.55013 169.609 4.63867C170 3.72721 170.537 2.92969 171.221 2.24609C171.904 1.5625 172.702 1.02539 173.613 0.634766C174.525 0.211589 175.501 0 176.543 0C177.552 0 178.512 0.211589 179.424 0.634766C180.335 1.02539 181.133 1.5625 181.816 2.24609C182.5 2.92969 183.037 3.72721 183.428 4.63867C183.818 5.55013 184.014 6.51042 184.014 7.51953ZM181.523 75H171.514V20.0195H181.523V75ZM215.557 75H213.066C210.625 75 208.346 74.5443 206.23 73.6328C204.115 72.7214 202.259 71.4844 200.664 69.9219C199.069 68.3268 197.816 66.4714 196.904 64.3555C195.993 62.207 195.537 59.9284 195.537 57.5195V0H205.547V57.5195C205.547 58.5612 205.742 59.5378 206.133 60.4492C206.523 61.3281 207.061 62.1094 207.744 62.793C208.428 63.4766 209.225 64.0137 210.137 64.4043C211.048 64.7949 212.025 64.9902 213.066 64.9902H215.557V75ZM287.773 77.4902C287.773 79.9316 287.318 82.2103 286.406 84.3262C285.495 86.4421 284.242 88.2975 282.646 89.8926C281.084 91.4876 279.229 92.7409 277.08 93.6523C274.964 94.5638 272.702 95.0195 270.293 95.0195H230.303V85.0098H270.293C271.302 85.0098 272.262 84.8145 273.174 84.4238C274.085 84.0332 274.883 83.4961 275.566 82.8125C276.25 82.1289 276.787 81.3314 277.178 80.4199C277.568 79.5085 277.764 78.5319 277.764 77.4902V75H250.273C246.497 75 242.949 74.2839 239.629 72.8516C236.309 71.3867 233.411 69.4173 230.938 66.9434C228.496 64.4368 226.559 61.5234 225.127 58.2031C223.695 54.8503 222.979 51.2858 222.979 47.5098V20.0195H232.988V47.5098C232.988 49.9186 233.428 52.181 234.307 54.2969C235.218 56.3802 236.455 58.2194 238.018 59.8145C239.58 61.377 241.403 62.6302 243.486 63.5742C245.602 64.4857 247.865 64.9577 250.273 64.9902H277.764V20.0195H287.773V77.4902Z" fill="white"/>
</svg>
